<?xml version="1.0" encoding="UTF-8"?>
<svg version="1.1" xmlns="http://www.w3.org/2000/svg" width="796" height="478">
<path d="M0 0 C262.68 0 525.36 0 796 0 C796 157.74 796 315.48 796 478 C533.32 478 270.64 478 0 478 C0 320.26 0 162.52 0 0 Z " fill="#FEFEFD" transform="translate(0,0)"/>
<path d="M0 0 C0.73729843 -0.0049649 1.47459686 -0.00992981 2.23423767 -0.01504517 C4.66365508 -0.02960099 7.09300716 -0.03645823 9.52246094 -0.04199219 C11.22011312 -0.04774962 12.9177653 -0.05350727 14.61541748 -0.05926514 C18.17281394 -0.06975682 21.73018792 -0.07561128 25.28759766 -0.07910156 C29.82788164 -0.08457851 34.36786458 -0.10859711 38.90805435 -0.13707352 C42.41525111 -0.15577334 45.92237645 -0.16090942 49.42961884 -0.16243744 C51.10243116 -0.16544859 52.7752427 -0.17342468 54.44800568 -0.18662262 C74.46062078 -0.33323449 74.46062078 -0.33323449 80.10626221 4.54241943 C84.82297949 9.78328493 84.68055339 14.91183477 84.82324219 21.64550781 C84.84402328 22.46110168 84.86480438 23.27669556 84.88621521 24.11700439 C84.9514489 26.71496386 85.01047361 29.31302195 85.06933594 31.91113281 C85.11254607 33.67546581 85.15616116 35.43978894 85.20019531 37.20410156 C85.30710339 41.52301165 85.40844421 45.84202066 85.50683594 50.16113281 C86.45655273 50.34724121 87.40626953 50.53334961 88.38476562 50.72509766 C89.63676758 50.97984863 90.88876953 51.23459961 92.17871094 51.49707031 C93.41717773 51.74505371 94.65564453 51.99303711 95.93164062 52.24853516 C105.17195563 54.60720065 113.2432122 61.12062551 119.50683594 68.16113281 C120.16437866 69.50618896 120.16437866 69.50618896 120.83520508 70.87841797 C122.47761587 74.1192394 123.93973638 76.57736552 126.50683594 79.16113281 C131.51661175 80.59052311 136.41148654 80.39370672 141.56933594 80.16113281 C144.24800297 80.09675557 146.92498962 80.06530107 149.60449219 80.03613281 C150.785354 79.99230469 151.96621582 79.94847656 153.18286133 79.90332031 C158.16947701 80.29008977 161.38234782 81.94293735 164.75683594 85.59863281 C168.01893755 90.3752816 168.80768904 93.77653508 168.81323242 99.55664062 C168.82155594 100.29539932 168.82987946 101.03415802 168.8384552 101.79530334 C168.86252786 104.23500868 168.87132493 106.67444634 168.87792969 109.11425781 C168.88689985 110.81573566 168.89602176 112.51721271 168.9052887 114.21868896 C168.92177503 117.78627435 168.92947785 121.35376596 168.93237305 124.92138672 C168.93774898 129.47886144 168.97539722 134.03544649 169.02111721 138.59267044 C169.05095787 142.10843061 169.05809816 145.62397866 169.0590992 149.13985443 C169.06328952 150.81910008 169.07567596 152.49834705 169.09661674 154.17746735 C169.28581914 170.66422427 169.28581914 170.66422427 165.20645142 175.73091125 C158.09132853 181.71826679 149.59975193 181.73215556 140.68869209 181.67755318 C138.59051596 181.66476338 136.49362451 181.67635006 134.39549255 181.69358826 C130.70594455 181.7200852 127.01672026 181.72589078 123.3270874 181.7244873 C117.39845152 181.72224349 111.47021071 181.73634663 105.54173088 181.78007317 C103.47695289 181.78990239 101.41280259 181.78120719 99.34803772 181.77137756 C98.0992131 181.77826096 96.85038849 181.78514435 95.5637207 181.79223633 C94.46359146 181.79127457 93.36346222 181.79031281 92.22999573 181.7893219 C89.15165233 182.20962837 88.45282798 182.85527744 86.50683594 185.16113281 C85.84683594 185.16113281 85.18683594 185.16113281 84.50683594 185.16113281 C84.51682869 186.36263474 84.51682869 186.36263474 84.52702332 187.58840942 C84.58722592 195.15062028 84.63285666 202.71271434 84.66227245 210.27510262 C84.67790401 214.16267272 84.69909597 218.05004419 84.7331543 221.9375 C84.76583795 225.6916994 84.78370783 229.44570817 84.79146767 233.20003891 C84.79699508 234.62972894 84.80778884 236.05940898 84.82402611 237.48901749 C84.84591752 239.49696866 84.84706234 241.50511312 84.84741211 243.51318359 C84.85740486 245.22527512 84.85740486 245.22527512 84.86759949 246.97195435 C84.32025041 251.81056369 82.65256608 255.07570425 79.13183594 258.41113281 C74.00704685 261.82765887 69.67445956 262.45640965 63.59887695 262.43579102 C62.42717957 262.44345741 62.42717957 262.44345741 61.23181152 262.45127869 C58.6580431 262.4651417 56.08454344 262.46422046 53.51074219 262.46191406 C51.71622112 262.4658027 49.92170097 262.47013772 48.12718201 262.47489929 C44.36885594 262.48235435 40.61062382 262.48207533 36.85229492 262.47680664 C32.04265673 262.4710119 27.23340362 262.48794654 22.42382908 262.51115131 C18.71857973 262.52590232 15.01342285 262.52675851 11.30814934 262.52364159 C9.53517837 262.52415407 7.76220213 262.52937822 5.98925972 262.53945351 C3.50731697 262.5518277 1.02612078 262.54502076 -1.45581055 262.53344727 C-2.18379349 262.541091 -2.91177643 262.54873474 -3.66181946 262.55661011 C-9.02062637 262.50154115 -13.1700189 261.32976951 -17.13769531 257.62597656 C-20.76698046 252.87998829 -21.61801021 250.83020408 -21.60668945 244.87548828 C-21.60683548 244.23146057 -21.60698151 243.58743286 -21.60713196 242.92388916 C-21.60643446 240.79199879 -21.59864972 238.66019545 -21.59082031 236.52832031 C-21.58895555 235.05144295 -21.58753192 233.57456497 -21.58653259 232.09768677 C-21.58271198 228.20801083 -21.57288558 224.31837214 -21.56182861 220.42871094 C-21.5516047 216.46061711 -21.54703287 212.49251726 -21.54199219 208.52441406 C-21.53126291 200.73663665 -21.51419195 192.94888995 -21.49316406 185.16113281 C-22.13253906 184.85175781 -22.77191406 184.54238281 -23.43066406 184.22363281 C-25.49316406 183.16113281 -25.49316406 183.16113281 -26.49316406 182.16113281 C-28.47537826 182.05316156 -30.46141348 182.01484569 -32.4465332 182.00341797 C-33.72198502 181.99315582 -34.99743683 181.98289368 -36.3115387 181.97232056 C-36.99812624 181.96888264 -37.68471378 181.96544472 -38.39210701 181.96190262 C-40.54099415 181.95012585 -42.68967918 181.930672 -44.83848572 181.90878296 C-50.95011575 181.8471576 -57.06173037 181.79329562 -63.17358398 181.75976562 C-66.90966289 181.73871596 -70.64538204 181.70332049 -74.3812542 181.65900803 C-75.80084405 181.64491656 -77.22049767 181.63614118 -78.64015388 181.63295364 C-95.97166896 181.58995699 -95.97166896 181.58995699 -101.86816406 175.84863281 C-105.04736622 170.59072155 -105.74733682 165.90429486 -105.78369141 159.81396484 C-105.79040863 159.1041748 -105.79712585 158.39438477 -105.80404663 157.66308594 C-105.82294443 155.33163326 -105.82694651 153.00046967 -105.82910156 150.66894531 C-105.83553487 149.03758631 -105.84226362 147.40622845 -105.84927368 145.77487183 C-105.86122564 142.36046678 -105.86495662 138.94616276 -105.86376953 135.53173828 C-105.86356638 131.17172887 -105.89087337 126.81237154 -105.92531395 122.45251656 C-105.94762738 119.08431056 -105.95160573 115.71626045 -105.95055008 112.34798813 C-105.95289916 110.74132921 -105.96168344 109.13466555 -105.97721481 107.52807999 C-106.11422343 91.89316409 -106.11422343 91.89316409 -101.49316406 85.16113281 C-96.61115551 80.51727102 -93.01531286 80.03655261 -86.41894531 80.06347656 C-85.39319649 80.06559898 -85.39319649 80.06559898 -84.34672546 80.06776428 C-82.16632684 80.07335405 -79.98603156 80.0859046 -77.80566406 80.09863281 C-76.32584784 80.10364914 -74.84603 80.10821181 -73.36621094 80.11230469 C-69.7418285 80.1233201 -66.11750637 80.14057769 -62.49316406 80.16113281 C-62.19224854 79.3810083 -61.89133301 78.60088379 -61.58129883 77.79711914 C-56.94829929 66.57376353 -46.25687555 58.66381736 -35.77832031 53.38769531 C-31.43767861 51.76705144 -27.04753948 50.95745862 -22.49316406 50.16113281 C-22.48381836 49.01112793 -22.47447266 47.86112305 -22.46484375 46.67626953 C-22.42485022 42.39316649 -22.35906571 38.11077468 -22.28564453 33.828125 C-22.25748908 31.97763229 -22.2362476 30.12702052 -22.22216797 28.27636719 C-22.20066286 25.60973401 -22.15397546 22.94452397 -22.10253906 20.27832031 C-22.10131042 19.45621063 -22.10008179 18.63410095 -22.09881592 17.78707886 C-21.96401595 12.45242874 -20.98745993 9.4164266 -17.49316406 5.16113281 C-12.11581368 0.05954399 -7.13754425 0.01159888 0 0 Z " fill="#016D40" transform="translate(156.4931640625,80.8388671875)"/>
<path d="M0 0 C0.73729843 -0.0049649 1.47459686 -0.00992981 2.23423767 -0.01504517 C4.66365508 -0.02960099 7.09300716 -0.03645823 9.52246094 -0.04199219 C11.22011312 -0.04774962 12.9177653 -0.05350727 14.61541748 -0.05926514 C18.17281394 -0.06975682 21.73018792 -0.07561128 25.28759766 -0.07910156 C29.82788164 -0.08457851 34.36786458 -0.10859711 38.90805435 -0.13707352 C42.41525111 -0.15577334 45.92237645 -0.16090942 49.42961884 -0.16243744 C51.10243116 -0.16544859 52.7752427 -0.17342468 54.44800568 -0.18662262 C74.3551131 -0.33246155 74.3551131 -0.33246155 80.10626221 4.50701904 C85.06476711 9.92059918 84.63201888 15.58614501 84.38574219 22.52441406 C84.3503257 23.71238838 84.3503257 23.71238838 84.31419373 24.92436218 C84.237939 27.44098562 84.15375178 29.95727122 84.06933594 32.47363281 C84.01607695 34.18520511 83.96333684 35.89679364 83.91113281 37.60839844 C83.78237592 41.79285505 83.64650672 45.97702685 83.50683594 50.16113281 C81.8646106 50.35703003 81.8646106 50.35703003 80.18920898 50.55688477 C78.7364735 50.73341823 77.28375636 50.91010264 75.83105469 51.08691406 C75.11139526 51.17235474 74.39173584 51.25779541 73.65026855 51.3458252 C56.79156075 53.41163087 44.34009274 61.37051838 32.50683594 73.16113281 C29.27555542 71.73936939 27.14773828 69.99329814 24.63183594 67.53613281 C12.97536798 56.97606531 -0.97982113 51.08830498 -16.72363281 51.14160156 C-18.34434692 51.1458313 -18.34434692 51.1458313 -19.99780273 51.15014648 C-20.82127197 51.15377197 -21.64474121 51.15739746 -22.49316406 51.16113281 C-22.44892312 45.57380655 -22.37899716 39.98760086 -22.28564453 34.40087891 C-22.25748486 32.50188127 -22.23624548 30.60276752 -22.22216797 28.70361328 C-22.20066888 25.96749643 -22.15398398 23.2327683 -22.10253906 20.49707031 C-22.10069611 19.23109512 -22.10069611 19.23109512 -22.09881592 17.93954468 C-21.96589346 12.54423698 -21.04180218 9.45965635 -17.49316406 5.16113281 C-12.11581368 0.05954399 -7.13754425 0.01159888 0 0 Z " fill="#1A8E55" transform="translate(156.4931640625,80.8388671875)"/>
<path d="M0 0 C2.84748793 2.83642294 5.67438405 5.6540075 8.3125 8.6875 C8.82425781 9.26886719 9.33601562 9.85023438 9.86328125 10.44921875 C11 12 11 12 11 14 C11.66 14 12.32 14 13 14 C13 14.66 13 15.32 13 16 C13.66 16 14.32 16 15 16 C15 16.66 15 17.32 15 18 C15.58523437 18.26167969 16.17046875 18.52335937 16.7734375 18.79296875 C19.129225 20.07005355 20.69562097 21.45854936 22.625 23.3125 C27.26667992 27.53432948 32.23109066 31.20824934 37.3125 34.875 C38.10156738 35.44645752 38.89063477 36.01791504 39.70361328 36.60668945 C45.94198434 41.45862913 45.94198434 41.45862913 53.3984375 42.83984375 C59.4991311 41.41723082 64.01810916 37.65138887 69 34 C70.05832031 33.23042969 71.11664063 32.46085937 72.20703125 31.66796875 C83.29230186 23.44552552 93.37973765 14.22351616 102.390625 3.765625 C102.92171875 3.18296875 103.4528125 2.6003125 104 2 C104.33 2 104.66 2 105 2 C105.20058814 9.97983922 105.38425948 17.95981516 105.54658794 25.94051552 C105.6224972 29.64662856 105.70413881 33.35242706 105.79907227 37.05810547 C105.89054417 40.63702247 105.96670796 44.21597329 106.03244972 47.79545212 C106.06013436 49.15824832 106.09325205 50.52094576 106.13199425 51.88347244 C106.18548012 53.79777741 106.21753452 55.71264429 106.2487793 57.62744141 C106.27320602 58.71554108 106.29763275 59.80364075 106.32279968 60.92471313 C105.82020033 65.71293713 104.10005844 68.95783937 100.625 72.25 C95.50021092 75.66652606 91.16762362 76.29527684 85.09204102 76.2746582 C84.31090942 76.27976913 83.52977783 76.28488007 82.72497559 76.29014587 C80.15120716 76.30400889 77.5777075 76.30308765 75.00390625 76.30078125 C73.20938518 76.30466989 71.41486503 76.30900491 69.62034607 76.31376648 C65.86202 76.32122153 62.10378788 76.32094252 58.34545898 76.31567383 C53.53582079 76.30987908 48.72656768 76.32681373 43.91699314 76.3500185 C40.21174379 76.36476951 36.50658691 76.3656257 32.8013134 76.36250877 C31.02834243 76.36302126 29.25536619 76.36824541 27.48242378 76.37832069 C25.00048103 76.39069489 22.51928484 76.38388794 20.03735352 76.37231445 C19.30937057 76.37995819 18.58138763 76.38760193 17.8313446 76.39547729 C12.4725377 76.34040833 8.32314516 75.1686367 4.35546875 71.46484375 C0.75338179 66.75442234 -0.12492829 64.71285334 -0.11352539 58.80615234 C-0.11344986 57.50495453 -0.11337433 56.20375671 -0.11329651 54.86312866 C-0.10818947 53.43739789 -0.10297347 52.0116675 -0.09765625 50.5859375 C-0.09579147 49.13148039 -0.09436785 47.67702266 -0.09336853 46.2225647 C-0.08954805 42.39207224 -0.07972176 38.56161763 -0.06866455 34.73114014 C-0.05844035 30.82336947 -0.05386874 26.91559269 -0.04882812 23.0078125 C-0.03809908 15.3385244 -0.02102828 7.6692675 0 0 Z " fill="#1A8E54" transform="translate(135,267)"/>
<path d="M0 0 C5.10781095 5.51262581 7.3571543 11.66644343 7.92578125 19.05859375 C7.40723794 26.83674344 5.37910453 31.46325367 -0.32421875 36.80859375 C-1.20335937 37.67355469 -2.0825 38.53851563 -2.98828125 39.4296875 C-12.07462063 48.14619801 -22.00574604 55.61079234 -32.32421875 62.80859375 C-33.23171875 63.45699219 -34.13921875 64.10539062 -35.07421875 64.7734375 C-37.32421875 65.80859375 -37.32421875 65.80859375 -39.66796875 65.83203125 C-43.553977 64.33477513 -46.55234696 61.97676621 -49.82421875 59.43359375 C-50.52546875 58.89774658 -51.22671875 58.36189941 -51.94921875 57.80981445 C-57.59578776 53.45916883 -63.09063755 48.94197665 -68.4765625 44.2734375 C-70.22040905 42.76401751 -71.98008291 41.27235922 -73.765625 39.8125 C-79.85159374 34.78008754 -83.16230874 30.50019229 -84.32421875 22.55859375 C-84.77341777 14.15050945 -81.97661819 7.39921092 -76.69921875 0.93359375 C-59.96308329 -16.26401604 -17.61767257 -15.6644938 0 0 Z " fill="#FCFDFB" transform="translate(226.32421875,236.19140625)"/>
<path d="M0 0 C0.66163651 0.02361099 1.32327301 0.04722198 2.00495911 0.07154846 C4.11421127 0.14800482 6.22307945 0.23210582 8.33203125 0.31640625 C9.76365321 0.36964505 11.19529379 0.42238532 12.62695312 0.47460938 C16.13304701 0.60359507 19.63883696 0.73943749 23.14453125 0.87890625 C22.85578125 1.95527344 22.56703125 3.03164062 22.26953125 4.140625 C16.31065864 27.20406204 20.2326262 47.52079906 31.9140625 68.2109375 C39.14177103 80.43526235 49.14491531 90.90935655 59.14453125 100.87890625 C50.93816605 100.94863485 42.73192611 101.00183284 34.52533722 101.03434277 C30.71405011 101.0499515 26.90296675 101.07110115 23.09179688 101.10522461 C19.40891029 101.13799045 15.72621881 101.15579525 12.04319763 101.16353798 C10.6430708 101.16905078 9.24295379 101.17981551 7.84291077 101.19609642 C-9.25270086 101.38686446 -9.25270086 101.38686446 -15.23046875 95.56640625 C-18.40967091 90.30849499 -19.10964151 85.6220683 -19.14599609 79.53173828 C-19.15271332 78.82194824 -19.15943054 78.1121582 -19.16635132 77.38085938 C-19.18524912 75.0494067 -19.1892512 72.71824311 -19.19140625 70.38671875 C-19.19783955 68.75535975 -19.20456831 67.12400189 -19.21157837 65.49264526 C-19.22353032 62.07824022 -19.22726131 58.6639362 -19.22607422 55.24951172 C-19.22587107 50.88950231 -19.25317806 46.53014498 -19.28761864 42.17028999 C-19.30993207 38.80208399 -19.31391042 35.43403389 -19.31285477 32.06576157 C-19.31520385 30.45910265 -19.32398813 28.85243899 -19.3395195 27.24585342 C-19.47652812 11.61093753 -19.47652812 11.61093753 -14.85546875 4.87890625 C-9.99707978 0.25751187 -6.5618348 -0.2491836 0 0 Z " fill="#1A8E54" transform="translate(69.85546875,161.12109375)"/>
<path d="M0 0 C4.1128382 5.60973691 5.59268712 9.06501692 5.59936523 16.02832031 C5.60768875 16.76707901 5.61601227 17.50583771 5.62458801 18.26698303 C5.64866067 20.70668837 5.65745774 23.14612602 5.6640625 25.5859375 C5.67303266 27.28741535 5.68215457 28.9888924 5.69142151 30.69036865 C5.70790784 34.25795404 5.71561066 37.82544565 5.71850586 41.39306641 C5.72388179 45.95054113 5.76153003 50.50712618 5.80725002 55.06435013 C5.83709068 58.5801103 5.84423097 62.09565835 5.84523201 65.61153412 C5.84942233 67.29077976 5.86180877 68.97002673 5.88274956 70.64914703 C6.0719496 87.1356997 6.0719496 87.1356997 1.99302673 92.20214844 C-5.65575048 98.63888812 -14.97259765 98.17421408 -24.46484375 98.0234375 C-25.86301863 98.01595965 -27.26120412 98.01027404 -28.65939331 98.00628662 C-32.30592755 97.99115122 -35.9518053 97.95197785 -39.5980835 97.9074707 C-43.33222579 97.86625343 -47.06647613 97.84821967 -50.80078125 97.828125 C-58.10316104 97.78546842 -65.40500351 97.71736865 -72.70703125 97.6328125 C-67.97021484 92.8828125 -67.97021484 92.8828125 -65.6015625 90.6328125 C-47.74529629 73.48007648 -33.19492405 49.93581412 -32.35473633 24.65991211 C-32.27240562 17.30946231 -33.27870407 10.55511029 -35.05078125 3.42578125 C-35.70703125 0.6328125 -35.70703125 0.6328125 -35.70703125 -2.3671875 C-31.35363449 -2.59435247 -26.99940565 -2.795559 -22.64453125 -2.9921875 C-21.41541016 -3.05664062 -20.18628906 -3.12109375 -18.91992188 -3.1875 C-4.74319219 -3.79889535 -4.74319219 -3.79889535 0 0 Z " fill="#1A8E54" transform="translate(319.70703125,164.3671875)"/>
<path d="M0 0 C6.93 0 13.86 0 21 0 C22.28583984 2.97 22.28583984 2.97 23.59765625 6 C32.26373551 26.01528089 32.26373551 26.01528089 41 46 C44.98339004 38.72265282 48.00949918 31.11699355 51.04345703 23.4128418 C53.20879076 17.92949193 55.47852337 12.52635076 57.9921875 7.19140625 C59.07784822 4.83072539 60.03499342 2.41251645 61 0 C68.26 0 75.52 0 83 0 C83 26.07 83 52.14 83 79 C77.72 79 72.44 79 67 79 C66.67 61.84 66.34 44.68 66 27 C60.82343838 38.66702609 60.82343838 38.66702609 55.64892578 50.33496094 C54.99779538 51.80146516 54.34659563 53.2679386 53.6953125 54.734375 C53.36007568 55.49121582 53.02483887 56.24805664 52.67944336 57.02783203 C52.19254028 58.12345459 52.19254028 58.12345459 51.69580078 59.24121094 C51.41600372 59.87186462 51.13620667 60.50251831 50.84793091 61.15228271 C49.943641 63.12281129 48.96961055 65.0607789 48 67 C43.38 67 38.76 67 34 67 C32.39995189 63.41154258 30.80055587 59.82280357 29.20263672 56.23339844 C28.40009062 54.43133917 27.59654575 52.6297248 26.79296875 50.828125 C26.27089844 49.65507812 25.74882812 48.48203125 25.2109375 47.2734375 C24.73962402 46.21560059 24.26831055 45.15776367 23.78271484 44.06787109 C21.15056311 38.06172043 18.58316371 32.02738199 16 26 C15.67 43.49 15.34 60.98 15 79 C10.05 79 5.1 79 0 79 C0 52.93 0 26.86 0 0 Z " fill="#066E41" transform="translate(349,260)"/>
<path d="M0 0 C0.66 0.66 1.32 1.32 2 2 C2.33 0.68 2.66 -0.64 3 -2 C7.95 -2 12.9 -2 18 -2 C18.09070163 5.92836916 18.16394493 13.85632873 18.20724869 21.785079 C18.228042 25.46751258 18.25620588 29.14956997 18.30175781 32.83178711 C18.34551408 36.39150198 18.36919905 39.95085714 18.37950897 43.51082039 C18.39039642 45.51648459 18.42157424 47.52200594 18.45318604 49.52745056 C18.4552488 57.99775311 17.63090457 64.75212532 12 71.33984375 C11.34 71.86707031 10.68 72.39429688 10 72.9375 C9.34 73.48277344 8.68 74.02804687 8 74.58984375 C-0.45903246 80.55412249 -11.98892696 80.03551079 -21.8828125 78.57421875 C-28.23869517 76.95038039 -33.37339237 73.63657877 -38 69 C-38.66 67.68 -39.32 66.36 -40 65 C-36.7 62.69 -33.4 60.38 -30 58 C-26 60 -26 60 -23.4375 62.0625 C-18.54638089 65.95031263 -12.98345488 65.48253668 -7 65 C-2.71578454 63.30416471 -1.03849327 61.07698654 1 57 C2.1577506 53.52674819 2.06866652 50.63932552 2 47 C1.0925 47.804375 0.185 48.60875 -0.75 49.4375 C-5.52529331 53.67014634 -10.75883865 53.28919133 -16.8984375 53.20703125 C-24.26023286 52.71562677 -29.55380618 50.5505035 -34.4921875 44.98046875 C-41.07455557 36.33471586 -41.22673885 26.51599065 -40 16 C-39.12752246 12.59466674 -37.952016 9.91113805 -36 7 C-35.401875 6.0925 -34.80375 5.185 -34.1875 4.25 C-24.78911342 -5.41691191 -11.64554034 -7.47072399 0 0 Z " fill="#036D3F" transform="translate(574,185)"/>
<path d="M0 0 C5.61 0 11.22 0 17 0 C20.01496676 5.73370317 22.32302256 11.4256614 24.375 17.5625 C26.88565587 24.91084341 29.60144446 32.1065575 32.53515625 39.296875 C34.4005878 44.01268596 36.07798717 48.78257666 37.74145508 53.57250977 C39.72597731 59.27434279 41.82440689 64.92713463 43.99609375 70.56030273 C45.57147487 74.69078231 46.77652371 78.717833 48 83 C42.39 83 36.78 83 31 83 C25 69.6 25 69.6 25 66 C14.11 66 3.22 66 -8 66 C-8.33 67.98 -8.66 69.96 -9 72 C-10.20918245 75.7198143 -11.61606324 79.33926405 -13 83 C-18.61 83 -24.22 83 -30 83 C-29.25685359 79.28426797 -28.46885184 76.30723627 -27.14453125 72.82421875 C-26.58644775 71.34731567 -26.58644775 71.34731567 -26.01708984 69.84057617 C-25.42081787 68.27980347 -25.42081787 68.27980347 -24.8125 66.6875 C-24.40467285 65.61024658 -23.9968457 64.53299316 -23.57666016 63.4230957 C-22.75945245 61.26457688 -21.94079392 59.10660672 -21.12060547 56.94921875 C-19.69562946 53.19895508 -18.28280055 49.44423823 -16.875 45.6875 C-16.64135742 45.06488281 -16.40771484 44.44226563 -16.16699219 43.80078125 C-13.38660166 36.38130722 -10.65558427 28.94360425 -7.921875 21.50683594 C-6.30420619 17.10794205 -4.68313528 12.71030164 -3.0625 8.3125 C-2.47003766 6.7044324 -1.87758836 5.09635999 -1.28515625 3.48828125 C-0.86105469 2.33714844 -0.43695313 1.18601563 0 0 Z " fill="#056E40" transform="translate(376,158)"/>
<path d="M0 0 C1.28648437 -0.01417969 2.57296875 -0.02835938 3.8984375 -0.04296875 C11.82264724 0.44710292 18.83364315 4.11224927 24.2421875 9.92578125 C30.75678579 18.61833695 30.59006026 28.76929198 29.625 39.1875 C27.96197368 46.56655689 22.87943221 53.38895714 16.5703125 57.5390625 C9.01788438 61.5005248 1.04793545 62.06794621 -7.375 61.1875 C-15.90054201 58.3111363 -22.93889412 53.06353359 -27.375 45.1875 C-30.77170356 37.04016209 -30.79673631 26.52397072 -28.53515625 18.03515625 C-25.09629871 10.52061569 -18.72166111 4.86083056 -11.375 1.1875 C-7.6213178 -0.06081757 -3.93020794 0.01961182 0 0 Z " fill="#046D40" transform="translate(497.375,180.8125)"/>
<path d="M0 0 C5.01050738 2.62605209 8.07426483 7.1953915 10.86328125 11.9765625 C12.22725262 16.7165148 11.98990003 21.54587703 11.9609375 26.43359375 C11.95952255 27.33655685 11.9581076 28.23951996 11.95664978 29.16984558 C11.95106948 32.04295213 11.93852059 34.91597966 11.92578125 37.7890625 C11.9207637 39.74153533 11.91620124 41.69400939 11.91210938 43.64648438 C11.9011065 48.42320735 11.88385543 53.19987154 11.86328125 57.9765625 C6.58328125 57.9765625 1.30328125 57.9765625 -4.13671875 57.9765625 C-4.63171875 55.9965625 -4.63171875 55.9965625 -5.13671875 53.9765625 C-6.02359375 54.6159375 -6.91046875 55.2553125 -7.82421875 55.9140625 C-13.62087964 59.52330418 -19.79698907 59.77830917 -26.44140625 58.55078125 C-32.42764372 56.90809319 -35.68856028 54.08722595 -39.13671875 48.9765625 C-41.34747206 44.55505587 -40.54757158 38.78940989 -40.13671875 33.9765625 C-37.82851653 28.80618953 -33.95256342 25.78114954 -29.13671875 22.9765625 C-26.13655963 21.97650946 -24.16248119 21.86080665 -21.03125 21.87890625 C-20.04833984 21.88212891 -19.06542969 21.88535156 -18.05273438 21.88867188 C-16.51649414 21.90124023 -16.51649414 21.90124023 -14.94921875 21.9140625 C-13.39557617 21.92083008 -13.39557617 21.92083008 -11.81054688 21.92773438 C-9.25254609 21.9395224 -6.69466142 21.95597735 -4.13671875 21.9765625 C-4.58057168 20.67128941 -5.03589103 19.36991118 -5.49609375 18.0703125 C-5.87459473 16.98266602 -5.87459473 16.98266602 -6.26074219 15.87304688 C-7.03601156 13.76053585 -7.03601156 13.76053585 -9.38671875 12.4765625 C-14.85413404 11.48248699 -18.56450053 11.55038377 -23.51171875 14.1015625 C-27.97284693 16.29757396 -30.79550596 15.93329515 -35.484375 14.5546875 C-36.02964844 14.36390625 -36.57492187 14.173125 -37.13671875 13.9765625 C-37.78515625 12.1953125 -37.78515625 12.1953125 -38.13671875 9.9765625 C-31.55983459 -3.06282522 -12.13589601 -4.74786425 0 0 Z " fill="#046E40" transform="translate(700.13671875,183.0234375)"/>
<path d="M0 0 C4.17377496 3.09639809 6.40069156 6.51974225 7.921875 11.42578125 C8.19278133 14.72585639 8.15452986 18.0111051 8.1171875 21.3203125 C8.1143576 22.26766769 8.11152771 23.21502289 8.10861206 24.19108582 C8.09744687 27.20694791 8.07234889 30.22250941 8.046875 33.23828125 C8.03684047 35.28710508 8.02771545 37.33593357 8.01953125 39.38476562 C7.99751949 44.39855273 7.96301471 49.41211608 7.921875 54.42578125 C2.971875 54.42578125 -1.978125 54.42578125 -7.078125 54.42578125 C-7.573125 52.44578125 -7.573125 52.44578125 -8.078125 50.42578125 C-8.50480469 50.78671875 -8.93148437 51.14765625 -9.37109375 51.51953125 C-14.74917346 55.51150794 -19.31183153 56.1832497 -25.94921875 55.9140625 C-31.96873602 54.97468714 -35.50772425 52.15724874 -39.515625 47.73828125 C-43.15050303 42.35866176 -42.61107505 36.75939054 -42.078125 30.42578125 C-39.72193618 24.92800735 -35.50220706 21.74714119 -30.078125 19.42578125 C-26.05115146 18.84779705 -22.13543777 18.94824663 -18.078125 19.11328125 C-17.01722656 19.13583984 -15.95632813 19.15839844 -14.86328125 19.18164062 C-12.26672801 19.24012155 -9.67319634 19.32201671 -7.078125 19.42578125 C-9.00204149 14.11166631 -9.00204149 14.11166631 -13.078125 10.42578125 C-18.21631271 9.74175007 -22.66184012 9.40975079 -26.953125 12.48828125 C-27.654375 13.12765625 -28.355625 13.76703125 -29.078125 14.42578125 C-33.20305993 14.32001369 -36.48679167 12.34672698 -40.078125 10.42578125 C-39.58628369 6.16315653 -37.22590019 3.16361362 -34.078125 0.42578125 C-24.28042518 -5.83706216 -9.90341302 -5.898845 0 0 Z " fill="#046D40" transform="translate(591.078125,284.57421875)"/>
<path d="M0 0 C5.61 0 11.22 0 17 0 C19.82715057 7.22494035 22.55679507 14.44052653 24.95996094 21.81738281 C26.00194891 25.00596384 27.0589788 28.18916518 28.12109375 31.37109375 C28.65174438 32.96135376 28.65174438 32.96135376 29.19311523 34.58374023 C29.45938721 35.38110596 29.72565918 36.17847168 30 37 C30.38857178 35.91468994 30.77714355 34.82937988 31.17749023 33.71118164 C32.61523711 29.6977873 34.05668184 25.68572959 35.49926758 21.67407227 C36.12398162 19.93517917 36.74768228 18.19592167 37.37036133 16.45629883 C38.26379639 13.96079325 39.16082716 11.46660629 40.05859375 8.97265625 C40.3377916 8.19036148 40.61698944 7.40806671 40.90464783 6.60206604 C42.88612829 1.11387171 42.88612829 1.11387171 44 0 C46.69654854 -0.07319621 49.36691458 -0.09242537 52.0625 -0.0625 C52.82111328 -0.05798828 53.57972656 -0.05347656 54.36132812 -0.04882812 C56.24091871 -0.0370068 58.12046899 -0.01907078 60 0 C57.41487383 9.61660878 53.74183839 18.83746829 50.1875 28.125 C49.27369901 30.52260388 48.36088725 32.92058266 47.44818115 35.31860352 C46.84619617 36.89916417 46.24337627 38.47940709 45.63970947 40.05932617 C44.18949874 43.8575584 42.75084355 47.65930385 41.34082031 51.47265625 C36.50223745 64.55480923 36.50223745 64.55480923 33.375 70.75 C32.55128906 72.41289062 32.55128906 72.41289062 31.7109375 74.109375 C28.96521483 78.74826719 26.27654986 81.58806804 21 83 C17.88973238 83.22294258 14.80357183 83.18894465 11.6875 83.125 C10.43356445 83.11146484 10.43356445 83.11146484 9.15429688 83.09765625 C7.10274031 83.07420989 5.05133223 83.03834266 3 83 C3.66 78.38 4.32 73.76 5 69 C7.76692708 68.83723958 10.53385417 68.67447917 13.30078125 68.51171875 C17.04332233 67.80220662 18.16720832 66.20754794 20.25 63.1875 C21.98974771 58.11323584 19.30643866 52.52889951 17.5625 47.6875 C17.30807129 46.97255371 17.05364258 46.25760742 16.79150391 45.52099609 C13.92813152 37.60148906 10.77216335 29.79631388 7.60375977 21.99487305 C0 3.24293559 0 3.24293559 0 0 Z " fill="#066E41" transform="translate(599,182)"/>
<path d="M0 0 C6.55003655 5.80651889 10.54796934 11.54980178 11.2734375 20.296875 C11.57337956 31.04864417 10.23331142 38.41098173 2.77734375 46.33984375 C0.68201129 48.29702242 -1.42071598 49.7472049 -4 51 C-4.99 51.495 -4.99 51.495 -6 52 C-13.43430695 52.68294158 -20.24054663 53.16263974 -26.390625 48.484375 C-32.57514014 42.78021055 -36.50575507 36.035491 -37.203125 27.51953125 C-37.38058432 17.27125565 -35.09020231 9.58806155 -28 2 C-20.13257913 -4.13658828 -8.7333865 -5.53056139 0 0 Z " fill="#FCFDFC" transform="translate(201,167)"/>
<path d="M0 0 C0 5.28 0 10.56 0 16 C4.29 16 8.58 16 13 16 C13 20.29 13 24.58 13 29 C8.71 29 4.42 29 0 29 C0.08667744 33.43848257 0.19353463 37.87486741 0.3125 42.3125 C0.33505859 43.57513672 0.35761719 44.83777344 0.38085938 46.13867188 C0.4340332 47.95141602 0.4340332 47.95141602 0.48828125 49.80078125 C0.51446533 50.91622314 0.54064941 52.03166504 0.56762695 53.1809082 C0.77834647 55.99707991 0.77834647 55.99707991 2.36328125 57.86914062 C4.79797959 59.55134867 6.77258314 59.29037942 9.6875 59.1875 C11.440625 59.125625 13.19375 59.06375 15 59 C15 63.62 15 68.24 15 73 C10.13081816 75.43459092 3.33070791 74.50009734 -2 74 C-7.01156765 72.09678003 -11.69593187 68.60813625 -14.125 63.75 C-16.48550958 56.33125559 -16.11944765 48.76795512 -16.0625 41.0625 C-16.05798828 39.90169922 -16.05347656 38.74089844 -16.04882812 37.54492188 C-16.03710647 34.69656066 -16.0206976 31.84830778 -16 29 C-18.64 29 -21.28 29 -24 29 C-24.41864567 25.57773775 -24.61672306 22.40515469 -24 19 C-22.34971364 17.38003386 -20.67533968 16.46552209 -18.66015625 15.34375 C-16.42851723 13.53743512 -16.42185591 12.23956635 -16.0625 9.4375 C-15.46147355 5.37888321 -15.46147355 5.37888321 -13.25390625 3.56640625 C-8.97251674 1.42178361 -4.81038456 0 0 0 Z " fill="#056E41" transform="translate(490,266)"/>
<path d="M0 0 C0 5.61 0 11.22 0 17 C-2.0625 16.896875 -4.125 16.79375 -6.25 16.6875 C-9.73001925 16.3969193 -9.73001925 16.3969193 -13 17 C-18.19413972 21.99634963 -18.15771509 26.96237753 -18.31640625 33.828125 C-18.33718735 34.57713074 -18.35796844 35.32613647 -18.37937927 36.09783936 C-18.44457088 38.48180288 -18.50361783 40.86587312 -18.5625 43.25 C-18.60571416 44.86980254 -18.64932937 46.48959443 -18.69335938 48.109375 C-18.80097311 52.07280905 -18.90027164 56.03632834 -19 60 C-24.28 60 -29.56 60 -35 60 C-35 40.53 -35 21.06 -35 1 C-30.05 1 -25.1 1 -20 1 C-20 3.31 -20 5.62 -20 8 C-19.34 8 -18.68 8 -18 8 C-17.61714844 7.07960937 -17.61714844 7.07960937 -17.2265625 6.140625 C-15.83031919 3.70386916 -14.85700574 2.99594711 -12.375 1.75 C-11.74335938 1.41484375 -11.11171875 1.0796875 -10.4609375 0.734375 C-8 0 -8 0 0 0 Z " fill="#076E41" transform="translate(465,181)"/>
<path d="M0 0 C0 5.28 0 10.56 0 16 C-1.711875 15.896875 -3.42375 15.79375 -5.1875 15.6875 C-9.43278458 15.67657263 -10.60465104 15.70744177 -14.125 18.3125 C-17.1791522 22.69011815 -17.19810659 26.57571886 -17.31640625 31.73046875 C-17.33718735 32.48088943 -17.35796844 33.23131012 -17.37937927 34.00447083 C-17.44469926 36.39872184 -17.50367792 38.79308139 -17.5625 41.1875 C-17.60570193 42.81186013 -17.64931676 44.43620933 -17.69335938 46.06054688 C-17.8011389 50.04025502 -17.90034215 54.02004701 -18 58 C-23.28 58 -28.56 58 -34 58 C-34 39.19 -34 20.38 -34 1 C-29.05 1 -24.1 1 -19 1 C-19 3.31 -19 5.62 -19 8 C-18.34 8 -17.68 8 -17 8 C-16.7525 7.401875 -16.505 6.80375 -16.25 6.1875 C-12.49602153 -0.38196232 -7.12104423 0 0 0 Z " fill="#066E41" transform="translate(546,281)"/>
<path d="M0 0 C5.28 0 10.56 0 16 0 C16 18.81 16 37.62 16 57 C10.72 57 5.44 57 0 57 C0 38.19 0 19.38 0 0 Z " fill="#036C3E" transform="translate(443,282)"/>
<path d="M0 0 C2.9375 1.3125 2.9375 1.3125 5 3 C5.556875 3.433125 6.11375 3.86625 6.6875 4.3125 C9.97073497 8.5338021 10.45233733 13.5086853 10.3125 18.69140625 C9.57667012 24.1273495 7.26364269 27.85123392 3.25 31.5 C-0.73508413 33.3392696 -3.69014811 33.84473097 -8 33 C-12.82252681 30.58873659 -15.79132769 27.92703823 -18 23 C-19.46849735 10.38291051 -19.46849735 10.38291051 -16.25 5.3125 C-11.01892788 -0.06387968 -7.40741362 -0.90187666 0 0 Z " fill="#F9FBF9" transform="translate(502,195)"/>
<path d="M0 0 C3.4212197 1.64975812 5.39315492 4.00698078 7.375 7.25 C8.95014276 14.18062813 8.37123358 19.75697486 5 26 C2.935289 28.69310131 1.34590081 29.53529155 -2 30 C-6.95799612 30.46773548 -10.34338088 29.984226 -14.48828125 27.3203125 C-17.75699817 24.46546413 -18.75802166 20.95627559 -19.27734375 16.7578125 C-19.54090587 10.49557654 -18.07714882 6.46661423 -14 1.625 C-9.40807617 -0.86229208 -5.10296124 -0.86795235 0 0 Z " fill="#F9FBF9" transform="translate(569,195)"/>
<path d="M0 0 C2.36668606 2.89972725 3.77017172 5.58486484 5.04296875 9.09765625 C5.39423828 10.06380859 5.74550781 11.02996094 6.10742188 12.02539062 C6.46384766 13.02763672 6.82027344 14.02988281 7.1875 15.0625 C7.55552734 16.06861328 7.92355469 17.07472656 8.30273438 18.11132812 C11 25.60262059 11 25.60262059 11 29 C4.07 29 -2.86 29 -10 29 C-8.89773539 25.66602706 -7.79324791 22.33281766 -6.6875 19 C-6.37876953 18.06542969 -6.07003906 17.13085938 -5.75195312 16.16796875 C-3.94604024 10.73122048 -2.05022664 5.34951444 0 0 Z " fill="#F5F9F7" transform="translate(384,180)"/>
<path d="M0 0 C3.64146056 0.80345393 5.15231038 2.45282347 7.1953125 5.484375 C7.9399449 9.45574781 7.56798128 10.92537183 5.3203125 14.296875 C2.81386343 16.87704316 1.94069577 17.40155464 -1.6171875 17.796875 C-5.535452 17.41273142 -7.01762017 16.19181183 -9.8046875 13.484375 C-11.23130969 10.63113063 -11.11502618 8.64982951 -10.8046875 5.484375 C-8.24092891 0.35685782 -5.39111034 -0.32026398 0 0 Z " fill="#0B6F42" transform="translate(452.8046875,256.515625)"/>
<path d="M0 0 C0.69287109 0.01804688 1.38574219 0.03609375 2.09960938 0.0546875 C3.79617664 0.10148936 5.49202476 0.17322376 7.1875 0.25 C8.328125 4.921875 8.328125 4.921875 7.0625 7.875 C4.43060476 11.20873398 2.29211448 12.94127301 -1.99609375 13.5703125 C-5.85038292 13.76017896 -8.10051526 13.718868 -11.375 11.5625 C-13.12749552 8.74326807 -13.54411799 7.50163553 -12.8125 4.25 C-8.85077887 0.106826 -5.48153675 -0.27276547 0 0 Z " fill="#F7FAF8" transform="translate(687.8125,215.75)"/>
<path d="M0 0 C0.35288435 3.7935068 0.28393415 5.55941253 -1.8125 8.8125 C-4.99216967 11.99216967 -7.67732047 12.17280929 -12 12.25 C-13.299375 12.28867187 -13.299375 12.28867187 -14.625 12.328125 C-17 12 -17 12 -18.7890625 10.671875 C-20.66397746 8.08328273 -20.38727735 6.09821879 -20 3 C-18.60955385 0.98385308 -17.56317412 0.22944131 -15.3125 -0.6875 C-10.10309132 -1.39147415 -5.09571862 -1.27392965 0 0 Z " fill="#F2F8F5" transform="translate(584,315)"/>
<path d="M0 0 C0 3 0 3 -1.75 5.04296875 C-2.4925 5.75066406 -3.235 6.45835937 -4 7.1875 C-4.7425 7.90292969 -5.485 8.61835938 -6.25 9.35546875 C-6.8275 9.89816406 -7.405 10.44085938 -8 11 C-8.33 10.34 -8.66 9.68 -9 9 C-7.87895467 7.68412059 -6.75303035 6.37239647 -5.625 5.0625 C-4.99851562 4.33160156 -4.37203125 3.60070312 -3.7265625 2.84765625 C-2 1 -2 1 0 0 Z " fill="#197044" transform="translate(481,185)"/>
<path d="M0 0 C0.66 0.33 1.32 0.66 2 1 C-0.64 3.64 -3.28 6.28 -6 9 C-6.33 8.34 -6.66 7.68 -7 7 C-2.25 1.125 -2.25 1.125 0 0 Z " fill="#126A3C" transform="translate(670,185)"/>
<path d="M0 0 C0 3 0 3 -2.5 5.6875 C-3.325 6.450625 -4.15 7.21375 -5 8 C-5.66 7.67 -6.32 7.34 -7 7 C-2.25 1.125 -2.25 1.125 0 0 Z " fill="#136E41" transform="translate(668,208)"/>
<path d="M0 0 C0 3 0 3 -1.875 5.1875 C-4 7 -4 7 -6 7 C-4.60667426 3.63279613 -3.0210714 2.0140476 0 0 Z " fill="#197246" transform="translate(559,284)"/>
<path d="M0 0 C0 0.99 0 1.98 0 3 C-2.5 5.1875 -2.5 5.1875 -5 7 C-5 6.01 -5 5.02 -5 4 C-2.5 1.8125 -2.5 1.8125 0 0 Z " fill="#2A935C" transform="translate(60,162)"/>
</svg>
