<?xml version="1.0" encoding="UTF-8"?>
<svg version="1.1" xmlns="http://www.w3.org/2000/svg" width="869" height="435">
<path d="M0 0 C286.77 0 573.54 0 869 0 C869 143.55 869 287.1 869 435 C582.23 435 295.46 435 0 435 C0 291.45 0 147.9 0 0 Z " fill="#FEFEFD" transform="translate(0,0)"/>
<path d="M0 0 C1.24484917 -0.01029488 1.24484917 -0.01029488 2.5148468 -0.02079773 C5.25103999 -0.03905987 7.98665948 -0.03522907 10.72290039 -0.02954102 C12.62952358 -0.03410315 14.53614513 -0.03940882 16.44276428 -0.04542542 C20.43652023 -0.05435541 24.43007621 -0.05193471 28.42382812 -0.04199219 C33.53624806 -0.0305036 38.64797717 -0.05071289 43.76030636 -0.07990932 C47.69719308 -0.09827501 51.63391438 -0.09797811 55.57083321 -0.0922718 C57.45544974 -0.09211863 59.34007752 -0.09815977 61.22465324 -0.11056328 C63.86244639 -0.12547824 66.49896489 -0.11479292 69.13671875 -0.09765625 C69.91145538 -0.10732422 70.68619202 -0.11699219 71.48440552 -0.12695312 C76.68953168 -0.05631396 79.61836677 1.12794072 83.63305664 4.40405273 C88.37933537 9.79172048 88.77375367 13.10274809 88.73071289 20.13061523 C88.72859047 21.42483902 88.72859047 21.42483902 88.72642517 22.74520874 C88.72081852 25.50652504 88.70826491 28.26776086 88.69555664 31.02905273 C88.6905425 32.89884323 88.68597944 34.768635 88.68188477 36.63842773 C88.67084693 41.22700051 88.65357784 45.81551297 88.63305664 50.40405273 C89.89835205 50.55334229 91.16364746 50.70263184 92.46728516 50.85644531 C101.32639223 51.90171277 108.54961397 56.19403023 115.63305664 61.40405273 C116.66430664 62.14655273 117.69555664 62.88905273 118.75805664 63.65405273 C123.15908721 67.86373414 126.90085549 72.93965043 129.63305664 78.40405273 C130.54071777 78.41863525 131.44837891 78.43321777 132.38354492 78.44824219 C135.77214975 78.50953422 139.15997353 78.5837285 142.5480957 78.66650391 C144.01055372 78.69962409 145.47313559 78.72769578 146.93579102 78.75048828 C149.04635067 78.78427449 151.1557885 78.83659654 153.26586914 78.89233398 C154.53317871 78.91851807 155.80048828 78.94470215 157.10620117 78.97167969 C162.1183327 79.5861394 166.26438775 81.33051369 169.44555664 85.34155273 C172.83025744 90.08013386 172.76297383 93.65453704 172.79418945 99.43237305 C172.79915436 100.13211746 172.80411926 100.83186188 172.80923462 101.55281067 C172.82381167 103.8626098 172.83065148 106.1723402 172.83618164 108.48217773 C172.84193763 110.0939738 172.84769531 111.70576986 172.85345459 113.31756592 C172.86395251 116.69682127 172.86980279 120.07605291 172.87329102 123.45532227 C172.87876716 127.77041889 172.90278129 132.08519862 172.93126297 136.40019608 C172.94995458 139.7306406 172.95509845 143.06100985 172.95662689 146.39150238 C172.95964025 147.98140949 172.96762397 149.57131569 172.98081207 151.16117096 C173.10120894 166.79360087 173.10120894 166.79360087 169.63305664 173.40405273 C164.68682645 178.22345651 160.78295492 179.65645977 153.93676758 179.63110352 C152.94102722 179.6315416 152.94102722 179.6315416 151.9251709 179.63198853 C149.73912313 179.63059932 147.5534196 179.61505776 145.36743164 179.59936523 C143.84857367 179.59563364 142.32971329 179.59278736 140.81085205 179.59078979 C136.81922728 179.58316483 132.82774876 179.56352618 128.83618164 179.54138184 C124.76068093 179.52089888 120.68515652 179.51178284 116.60961914 179.50170898 C108.61736463 179.48027915 100.62522885 179.446157 92.63305664 179.40405273 C92.63305664 180.06405273 92.63305664 180.72405273 92.63305664 181.40405273 C91.97305664 181.40405273 91.31305664 181.40405273 90.63305664 181.40405273 C89.52767768 184.72018963 89.51511887 187.1678817 89.52294922 190.66040039 C89.52237015 191.9524942 89.52179108 193.24458801 89.52119446 194.57583618 C89.52262262 195.26660877 89.52405079 195.95738136 89.52552223 196.66908646 C89.52905317 200.34253432 89.5032173 204.01583123 89.48266602 207.68920898 C89.45838968 212.35681907 89.44257387 217.02398614 89.45800781 221.69165039 C89.46972982 225.46917656 89.45211068 229.24560549 89.41556358 233.02296066 C89.40699702 234.45569884 89.40895346 235.88854333 89.42206764 237.3212471 C89.48906438 245.23619325 89.21513664 251.19406416 84.40678406 257.67709351 C79.75049329 262.21061102 75.68361703 262.84521223 69.35791016 262.80810547 C68.12769135 262.81840034 68.12769135 262.81840034 66.87261963 262.8289032 C64.16888991 262.84716364 61.46574088 262.8433348 58.76196289 262.83764648 C56.87775992 262.84220871 54.99355862 262.8475144 53.10935974 262.85353088 C49.16268143 262.86246054 45.21620548 262.86004057 41.26953125 262.85009766 C36.21764235 262.83860916 31.16645256 262.85881835 26.11465549 262.88801479 C22.22409139 262.90638145 18.33369466 262.90608339 14.44309807 262.90037727 C12.58081011 262.90022411 10.71851077 262.9062643 8.85626411 262.91866875 C6.24959888 262.93358558 3.64422318 262.92289712 1.03759766 262.90576172 C0.27221176 262.91542969 -0.49317413 262.92509766 -1.28175354 262.93505859 C-6.46046092 262.86395231 -9.36830112 261.6528402 -13.36694336 258.40405273 C-17.96549461 253.29455134 -19.61273648 249.81347955 -19.63818359 242.9230957 C-19.65346352 240.95117752 -19.65346352 240.95117752 -19.66905212 238.93942261 C-19.66999311 238.23979275 -19.6709341 237.54016289 -19.67190361 236.81933212 C-19.67557169 234.62555822 -19.69230715 232.43223457 -19.71266174 230.23855591 C-19.76805035 224.00360459 -19.79883347 217.76858879 -19.82324219 211.53344727 C-19.83908545 207.71615627 -19.86926227 203.89918917 -19.90800667 200.08206558 C-19.91967793 198.62680616 -19.9255872 197.17148893 -19.92568779 195.71618271 C-19.92587908 193.68615023 -19.94561259 191.6561477 -19.96630859 189.6262207 C-19.97137924 188.47024384 -19.97644989 187.31426697 -19.98167419 186.1232605 C-20.17238243 184.77725266 -20.17238243 184.77725266 -20.36694336 183.40405273 C-21.85194336 182.41405273 -21.85194336 182.41405273 -23.36694336 181.40405273 C-23.36694336 180.74405273 -23.36694336 180.08405273 -23.36694336 179.40405273 C-24.61815979 179.42070732 -24.61815979 179.42070732 -25.89465332 179.43769836 C-33.7799241 179.53814575 -41.66497805 179.61414168 -49.5507431 179.66311359 C-53.60433893 179.6891378 -57.65740333 179.72440233 -61.71069336 179.78125 C-65.6270312 179.83582922 -69.54285995 179.86552718 -73.45954895 179.87843895 C-74.94904081 179.88763274 -76.43850677 179.90558612 -77.92778015 179.93270302 C-91.89418102 180.17674568 -91.89418102 180.17674568 -97.7767334 176.16423035 C-102.48639858 170.95117835 -103.8677726 166.6979079 -103.86865234 159.72802734 C-103.87675682 158.62904366 -103.87675682 158.62904366 -103.88502502 157.50785828 C-103.89744428 155.10694905 -103.88106974 152.70725501 -103.86303711 150.30639648 C-103.86319224 148.6268355 -103.86468356 146.94727417 -103.8674469 145.26771545 C-103.86882778 141.75660273 -103.856324 138.24590004 -103.83349609 134.73486328 C-103.80509027 130.24358727 -103.80785882 125.75299087 -103.8205862 121.26166439 C-103.82755375 117.7965773 -103.81974222 114.33164622 -103.80732918 110.86657906 C-103.80282667 109.21084759 -103.80246735 107.55509931 -103.80639458 105.89936638 C-103.80931801 103.58279164 -103.79274784 101.26714124 -103.77099609 98.95068359 C-103.76559311 97.63498886 -103.76019012 96.31929413 -103.75462341 94.96372986 C-103.26632131 90.48014134 -101.92812189 87.07646027 -98.83178711 83.75952148 C-93.8235306 79.92967827 -91.13794488 79.26153024 -84.95288086 79.30639648 C-84.22324127 79.30781143 -83.49360168 79.30922638 -82.74185181 79.3106842 C-80.40850751 79.31628743 -78.07525872 79.32884039 -75.74194336 79.34155273 C-74.16121558 79.34656732 -72.58048629 79.3511303 -70.99975586 79.35522461 C-67.12211482 79.36625789 -63.24454529 79.38352463 -59.36694336 79.40405273 C-59.06675293 78.62465332 -58.7665625 77.84525391 -58.45727539 77.04223633 C-53.60354551 65.29807934 -42.37505148 57.69673759 -31.36694336 52.40405273 C-27.10927771 50.63671982 -23.94154768 50.34095474 -19.36694336 50.40405273 C-19.39836426 49.26452148 -19.42978516 48.12499023 -19.4621582 46.95092773 C-19.57133842 42.69454589 -19.63984878 38.43828594 -19.6965332 34.1809082 C-19.72657589 32.34378192 -19.76742355 30.50679751 -19.81958008 28.67016602 C-19.89295481 26.01860449 -19.92652323 23.36894957 -19.95288086 20.71655273 C-19.98384857 19.90476562 -20.01481628 19.09297852 -20.04672241 18.2565918 C-20.0499731 12.6602094 -18.60856381 9.49334027 -15.14712524 5.11962891 C-10.44494268 0.58809624 -6.36003152 -0.03685899 0 0 Z " fill="#02683B" transform="translate(170.366943359375,69.595947265625)"/>
<path d="M0 0 C1.24484917 -0.01029488 1.24484917 -0.01029488 2.5148468 -0.02079773 C5.25103999 -0.03905987 7.98665948 -0.03522907 10.72290039 -0.02954102 C12.62952358 -0.03410315 14.53614513 -0.03940882 16.44276428 -0.04542542 C20.43652023 -0.05435541 24.43007621 -0.05193471 28.42382812 -0.04199219 C33.53624806 -0.0305036 38.64797717 -0.05071289 43.76030636 -0.07990932 C47.69719308 -0.09827501 51.63391438 -0.09797811 55.57083321 -0.0922718 C57.45544974 -0.09211863 59.34007752 -0.09815977 61.22465324 -0.11056328 C63.86244639 -0.12547824 66.49896489 -0.11479292 69.13671875 -0.09765625 C69.91145538 -0.10732422 70.68619202 -0.11699219 71.48440552 -0.12695312 C76.68953168 -0.05631396 79.61836677 1.12794072 83.63305664 4.40405273 C88.37933537 9.79172048 88.77375367 13.10274809 88.73071289 20.13061523 C88.72929794 20.99343109 88.727883 21.85624695 88.72642517 22.74520874 C88.72081852 25.50652504 88.70826491 28.26776086 88.69555664 31.02905273 C88.6905425 32.89884323 88.68597944 34.768635 88.68188477 36.63842773 C88.67084693 41.22700051 88.65357784 45.81551297 88.63305664 50.40405273 C86.68230225 50.48296753 86.68230225 50.48296753 84.69213867 50.56347656 C82.96669888 50.64147911 81.24127656 50.7198687 79.51586914 50.79858398 C78.660979 50.83213989 77.80608887 50.8656958 76.92529297 50.90026855 C62.14927842 51.60033466 52.152014 58.66992367 41.79345703 68.62109375 C39.23012335 71.0636488 36.93034436 73.05694231 33.63305664 74.40405273 C32.89055664 73.43467773 32.14805664 72.46530273 31.38305664 71.46655273 C22.98811693 61.75437424 9.62700594 52.47566972 -3.47338867 51.19873047 C-4.20654297 51.16207275 -4.93969727 51.12541504 -5.69506836 51.08764648 C-6.89389648 51.02480469 -6.89389648 51.02480469 -8.11694336 50.96069336 C-8.94194336 50.92137695 -9.76694336 50.88206055 -10.61694336 50.84155273 C-11.87764648 50.77677734 -11.87764648 50.77677734 -13.16381836 50.71069336 C-15.23135007 50.60496731 -17.29912616 50.50403978 -19.36694336 50.40405273 C-19.51604981 44.99645873 -19.62451335 39.59007918 -19.6965332 34.1809082 C-19.72657589 32.34378192 -19.76742355 30.50679751 -19.81958008 28.67016602 C-19.89295481 26.01860449 -19.92652323 23.36894957 -19.95288086 20.71655273 C-19.98384857 19.90476562 -20.01481628 19.09297852 -20.04672241 18.2565918 C-20.0499731 12.6602094 -18.60856381 9.49334027 -15.14712524 5.11962891 C-10.44494268 0.58809624 -6.36003152 -0.03685899 0 0 Z " fill="#DE2D23" transform="translate(170.366943359375,69.595947265625)"/>
<path d="M0 0 C3.1285659 3.12547952 6.2500728 6.25766618 9.36328125 9.3984375 C11.01295516 11.05735698 12.66269658 12.71620932 14.3125 14.375 C15.12912109 15.2 15.94574219 16.025 16.78710938 16.875 C21.69208526 21.79951762 26.70397973 26.49999678 32 31 C33.19936153 32.03238623 34.398584 33.06493405 35.59765625 34.09765625 C36.75223459 35.08636924 37.90717908 36.07465482 39.0625 37.0625 C40.22005208 38.05338542 41.37760417 39.04427083 42.53515625 40.03515625 C43.09734863 40.5161377 43.65954102 40.99711914 44.23876953 41.49267578 C47.16068738 43.9933579 50.08032027 46.49670547 53 49 C56.46743471 47.35611492 58.92309063 45.42784132 61.75 42.8125 C64.80776819 40.00954583 67.86719183 37.21892092 71 34.5 C74.8985793 31.10446319 78.73569717 27.64325256 82.5703125 24.17578125 C84.64806226 22.31515968 86.75294291 20.49697192 88.875 18.6875 C92.53972926 15.49685276 95.99467913 12.11354893 99.4375 8.6875 C100.23679932 7.89508911 100.23679932 7.89508911 101.05224609 7.08666992 C103.8757636 4.30771691 103.8757636 4.30771691 106 1 C106.66 1 107.32 1 108 1 C108.13954323 9.31938163 108.24589278 17.63826749 108.31087303 25.95853329 C108.34207416 29.82279484 108.38433622 33.68625082 108.45263672 37.55004883 C108.51823773 41.28487018 108.55379024 45.01892098 108.56926346 48.75427437 C108.58027767 50.17320435 108.6017857 51.59209618 108.63438034 53.0106945 C108.80864967 60.9158314 108.59124473 66.79418297 103.78018188 73.26905823 C99.11820051 77.80208846 95.05586796 78.44119063 88.72485352 78.40405273 C87.90470764 78.41091599 87.08456177 78.41777924 86.23956299 78.42485046 C83.53583327 78.4431109 80.83268424 78.43928206 78.12890625 78.43359375 C76.24470328 78.43815597 74.36050198 78.44346167 72.4763031 78.44947815 C68.52962479 78.45840781 64.58314884 78.45598783 60.63647461 78.44604492 C55.58458571 78.43455642 50.53339592 78.45476562 45.48159885 78.48396206 C41.59103475 78.50232872 37.70063802 78.50203065 33.81004143 78.49632454 C31.94775347 78.49617138 30.08545413 78.50221157 28.22320747 78.51461601 C25.61654224 78.52953284 23.01116654 78.51884439 20.40454102 78.50170898 C19.63915512 78.51137695 18.87376923 78.52104492 18.08518982 78.53100586 C12.90648243 78.45989958 9.99864224 77.24878747 6 74 C1.41620786 68.90689762 -0.2536853 65.45080791 -0.22705078 58.57910156 C-0.22689972 57.27805481 -0.22674866 55.97700806 -0.22659302 54.63653564 C-0.21638046 53.22123053 -0.20594848 51.80592699 -0.1953125 50.390625 C-0.19158071 48.93902786 -0.18873452 47.4874282 -0.18673706 46.03582764 C-0.17911364 42.22175093 -0.15947635 38.40782738 -0.1373291 34.59381104 C-0.11684278 30.69928051 -0.10772939 26.80472516 -0.09765625 22.91015625 C-0.07622915 15.2733678 -0.04210892 7.63670539 0 0 Z " fill="#DE2D24" transform="translate(151,254)"/>
<path d="M0 0 C6.26325308 5.57618716 10.05843051 10.77208451 10.8125 19.1875 C11.23562177 26.61287221 10.72211069 31.75038705 5.86328125 37.55078125 C3.65416739 39.83815679 1.48010302 42.00932907 -1 44 C-1.66 44 -2.32 44 -3 44 C-3 44.66 -3 45.32 -3 46 C-4.3984375 47.41015625 -4.3984375 47.41015625 -6.375 49.0625 C-9.62941067 51.82817409 -12.83413833 54.63308192 -16 57.5 C-27.93543244 68.2620566 -27.93543244 68.2620566 -34 73 C-36.93231569 71.65951283 -39.16757113 70.15181514 -41.5625 68 C-42.25472656 67.38125 -42.94695312 66.7625 -43.66015625 66.125 C-47.22878426 62.88404234 -50.79683711 59.64256198 -54.35546875 56.390625 C-56.47951894 54.47050873 -58.62920819 52.60135665 -60.8125 50.75 C-64.82665766 47.24810932 -68.63738326 43.54329771 -72.4375 39.8125 C-73.06567627 39.20567383 -73.69385254 38.59884766 -74.34106445 37.97363281 C-75.22217896 37.09916504 -75.22217896 37.09916504 -76.12109375 36.20703125 C-76.6514624 35.6860083 -77.18183105 35.16498535 -77.72827148 34.62817383 C-81.41631994 29.90642395 -80.36886788 22.62523512 -80 17 C-78.81670798 9.41509814 -74.93478609 4.69881628 -69 0 C-51.33465578 -11.51493424 -17.54705052 -10.41308562 0 0 Z " fill="#FCFDFC" transform="translate(240,220)"/>
<path d="M0 0 C0.70744354 0.00141495 1.41488708 0.0028299 2.14376831 0.00428772 C4.40578419 0.00989025 6.66770148 0.02244307 8.9296875 0.03515625 C10.46223815 0.04017093 11.99479036 0.04473389 13.52734375 0.04882812 C17.28649638 0.05986048 21.04557522 0.07712673 24.8046875 0.09765625 C24.59972656 0.73832031 24.39476562 1.37898437 24.18359375 2.0390625 C18.45816187 20.42071221 19.14313896 39.74317674 27.8046875 57.09765625 C28.13984375 57.86207031 28.475 58.62648437 28.8203125 59.4140625 C35.50556352 74.07924343 47.75005567 86.29238187 59.15234375 97.3828125 C60.8046875 99.09765625 60.8046875 99.09765625 60.8046875 100.09765625 C52.20722509 100.2138396 43.61009421 100.30251677 35.01203918 100.35671711 C31.0189732 100.38273932 27.02644687 100.41800001 23.03369141 100.47485352 C19.17570746 100.52944014 15.31824042 100.55913219 11.4598999 100.57204247 C9.99273549 100.58123496 8.52559731 100.59918578 7.05865479 100.62630653 C-6.69399974 100.87030278 -6.69399974 100.87030278 -12.59741211 96.85783386 C-17.31992579 91.65571807 -18.69614212 87.38851743 -18.69702148 80.42163086 C-18.70512596 79.32264717 -18.70512596 79.32264717 -18.71339417 78.20146179 C-18.72581342 75.80055257 -18.70943889 73.40085852 -18.69140625 71 C-18.69156138 69.32043902 -18.6930527 67.64087768 -18.69581604 65.96131897 C-18.69719692 62.45020624 -18.68469314 58.93950355 -18.66186523 55.4284668 C-18.63345941 50.93719078 -18.63622796 46.44659439 -18.64895535 41.95526791 C-18.65592289 38.49018082 -18.64811136 35.02524973 -18.63569832 31.56018257 C-18.63119581 29.90445111 -18.63083649 28.24870283 -18.63476372 26.59296989 C-18.63768715 24.27639516 -18.62111698 21.96074475 -18.59936523 19.64428711 C-18.59396225 18.32859238 -18.58855927 17.01289764 -18.58299255 15.65733337 C-18.09469045 11.17374486 -16.75649103 7.77006379 -13.66015625 4.453125 C-8.72180434 0.67673825 -6.09646682 -0.04562624 0 0 Z " fill="#DD2D23" transform="translate(85.1953125,148.90234375)"/>
<path d="M0 0 C4.3049777 -0.07451364 8.60960734 -0.12877223 12.91503906 -0.16479492 C14.37767075 -0.17982196 15.84025782 -0.20024955 17.30273438 -0.22631836 C19.4128728 -0.26297267 21.52241226 -0.27978676 23.6328125 -0.29296875 C24.90012207 -0.3086792 26.16743164 -0.32438965 27.47314453 -0.34057617 C31.94412162 0.09117054 35.27942668 1.46742281 38.64453125 4.46484375 C42.8806682 9.80605991 43.12478636 13.30079476 43.16113281 20.02832031 C43.16858017 21.07793694 43.16858017 21.07793694 43.17617798 22.14875793 C43.19075503 24.45855706 43.19759484 26.76828747 43.203125 29.078125 C43.20888099 30.68992107 43.21463867 32.30171713 43.22039795 33.91351318 C43.23089587 37.29276853 43.23674615 40.67200018 43.24023438 44.05126953 C43.24571051 48.36636616 43.26972465 52.68114588 43.29820633 56.99614334 C43.31689794 60.32658786 43.32204181 63.65695712 43.32357025 66.98744965 C43.32658361 68.57735676 43.33456733 70.16726296 43.34775543 71.75711823 C43.4681523 87.38954814 43.4681523 87.38954814 40 94 C35.08880526 98.78526667 31.19439905 100.25261052 24.39550781 100.22705078 C23.74143448 100.22734283 23.08736115 100.22763489 22.41346741 100.22793579 C20.25988317 100.22654676 18.10664851 100.21100608 15.953125 100.1953125 C14.45668731 100.19158084 12.96024717 100.18873459 11.46380615 100.18673706 C7.5313641 100.1791126 3.59907053 100.15947438 -0.33331299 100.1373291 C-4.34849031 100.11684506 -8.3636917 100.10772988 -12.37890625 100.09765625 C-20.25267219 100.0762273 -28.12631761 100.04210576 -36 100 C-35.05754299 98.88990689 -34.11355802 97.7811109 -33.16894531 96.67285156 C-32.64343079 96.05524963 -32.11791626 95.43764771 -31.57647705 94.80133057 C-29.41446639 92.33095151 -27.09928973 90.04163844 -24.75 87.75 C-22.15272689 85.21569109 -20.01651123 83.02476684 -18 80 C-17.34 80 -16.68 80 -16 80 C-15.76023437 79.48050781 -15.52046875 78.96101563 -15.2734375 78.42578125 C-13.5887333 75.21657479 -11.60792435 72.21696776 -9.625 69.1875 C-5.17815058 62.3912318 -1.0494264 56.03185006 1.1875 48.125 C2.9138756 42.0861244 2.9138756 42.0861244 4 41 C6.49665417 27.24145973 6.34901767 12.69803534 0 0 Z " fill="#DE2D24" transform="translate(300,149)"/>
<path d="M0 0 C5.94 0 11.88 0 18 0 C22.37477407 8.59604729 26.60760111 17.1722828 30.40869141 26.03564453 C32.76595101 31.52145799 35.27564184 36.92606623 37.86743164 42.30493164 C40 46.78695013 40 46.78695013 40 49 C40.66 49 41.32 49 42 49 C42.09925781 48.319375 42.19851563 47.63875 42.30078125 46.9375 C43.14655486 43.38430583 44.60245162 40.26765769 46.1875 37 C46.82850176 35.65512742 47.46912049 34.31007223 48.109375 32.96484375 C48.42970703 32.29565918 48.75003906 31.62647461 49.08007812 30.93701172 C50.39873584 28.16041132 51.6658292 25.36087449 52.9375 22.5625 C56.4410544 14.94772866 60.22566498 7.4835953 64 0 C70.27 0 76.54 0 83 0 C83 26.4 83 52.8 83 80 C77.72 80 72.44 80 67 80 C66.67 63.5 66.34 47 66 30 C61.73368243 38.53263514 57.60575754 46.93506952 53.85351562 55.66992188 C51.83384619 60.30570081 49.58386617 64.6515423 47 69 C43.04 69 39.08 69 35 69 C28.2513393 55.85074705 22.11606006 42.45533214 16 29 C15.67 45.83 15.34 62.66 15 80 C10.05 80 5.1 80 0 80 C0 53.6 0 27.2 0 0 Z " fill="#036639" transform="translate(373,243)"/>
<path d="M0 0 C0.66 0.66 1.32 1.32 2 2 C2.33 0.02 2.66 -1.96 3 -4 C7.95 -4 12.9 -4 18 -4 C18.09087291 3.37223929 18.16404219 10.74416538 18.20724869 18.11684895 C18.22800031 21.54141087 18.25608503 24.96556517 18.30175781 28.38989258 C18.35409597 32.33930343 18.37304794 36.28855729 18.390625 40.23828125 C18.41127014 41.45018631 18.43191528 42.66209137 18.45318604 43.91072083 C18.45561098 53.22422953 17.20767736 61.82804531 10.75 68.9375 C3.0697238 75.76804352 -6.56278915 78.53297808 -16.75 78.25 C-25.0884688 77.32350347 -34.28157799 73.18596595 -40 67 C-38.5140084 62.40693504 -36.14985318 59.56430755 -33 56 C-30.41191663 57.25448582 -28.07267146 58.58387352 -25.625 60.125 C-19.85161051 63.02800375 -13.29254064 62.83449464 -7 62 C-3.25214995 60.24059261 -2.21145762 59.38645703 -0.1875 55.6875 C0.94267342 52.17801411 1.26694448 49.64824127 1 46 C0.13375 46.928125 0.13375 46.928125 -0.75 47.875 C-5.99702637 52.83052491 -12.00829096 53.0687991 -19 53 C-25.69878186 51.89123611 -31.21967046 49.79653185 -35.3359375 44.17578125 C-41.61530596 34.64783777 -42.02695196 25.10999174 -41 14 C-39.22597205 6.03280862 -33.85204596 0.81857021 -27.4375 -3.875 C-18.16769722 -8.15337051 -7.77157041 -6.25231604 0 0 Z " fill="#06683B" transform="translate(594,173)"/>
<path d="M0 0 C5.94 0 11.88 0 18 0 C20.67830542 5.35661084 22.93822364 10.27359122 24.8125 15.875 C26.90685944 21.97455199 29.13040967 28.00207627 31.5 34 C34.05377495 40.47756192 36.44015483 46.99301373 38.71728516 53.57250977 C40.91615324 59.8778488 43.33474527 66.09005874 45.81640625 72.2890625 C48 77.79250919 48 77.79250919 48 80 C42.39 80 36.78 80 31 80 C26 67.5 26 67.5 26 63 C10.16 63.495 10.16 63.495 -6 64 C-7.98 69.28 -9.96 74.56 -12 80 C-17.28 80 -22.56 80 -28 80 C-24.83515725 69.17290638 -21.46978969 58.4161368 -17.1640625 47.984375 C-14.82211678 41.980192 -12.77829949 35.86459391 -10.6640625 29.77734375 C-9.14177939 25.39503935 -7.57422955 21.03116057 -5.9765625 16.67578125 C-3.95212861 11.1288324 -1.98250604 5.56203085 0 0 Z " fill="#05683B" transform="translate(398,147)"/>
<path d="M0 0 C7.77928765 5.19186593 12.25183698 11.20148564 14.78515625 20.19140625 C15.90673439 30.35081755 14.17749785 38.90334435 8.66015625 47.50390625 C3.39745742 52.42338559 -2.82053319 56.88330998 -10.21484375 57.19140625 C-10.9521875 57.24039063 -11.68953125 57.289375 -12.44921875 57.33984375 C-21.54911453 57.70723085 -28.50192911 56.01125183 -35.58984375 50.12890625 C-42.8076032 43.03598226 -44.54707198 36.43324218 -44.65234375 26.56640625 C-44.50199422 17.24372633 -42.81754603 10.90091983 -36.265625 4.0234375 C-26.7946943 -4.4372606 -11.30381218 -6.25085568 0 0 Z " fill="#05683B" transform="translate(532.21484375,170.80859375)"/>
<path d="M0 0 C5.32934805 3.49738466 8.0308857 8.28101412 9.70709229 14.33308411 C10.47990653 18.14520738 10.3679978 21.95317078 10.3203125 25.828125 C10.3174826 26.70606216 10.31465271 27.58399933 10.31173706 28.48854065 C10.30061598 31.2698477 10.27552672 34.05082289 10.25 36.83203125 C10.23995975 38.72720886 10.23083573 40.62239157 10.22265625 42.51757812 C10.20070315 47.14335542 10.1662296 51.76888723 10.125 56.39453125 C5.505 56.39453125 0.885 56.39453125 -3.875 56.39453125 C-4.37 54.41453125 -4.37 54.41453125 -4.875 52.39453125 C-5.8959375 53.32265625 -5.8959375 53.32265625 -6.9375 54.26953125 C-12.24155881 58.10650997 -18.39741444 59.36437308 -24.875 58.39453125 C-31.49338192 56.34360888 -36.61613572 53.26687001 -40.1875 47.14453125 C-41.63751094 41.34448751 -41.82577271 36.39490681 -38.8125 31.08203125 C-34.49102914 25.01024399 -28.87424414 22.9483007 -21.78515625 21.69921875 C-16.15927301 21.1102001 -10.52270642 21.24804895 -4.875 21.39453125 C-5.143125 20.11578125 -5.41125 18.83703125 -5.6875 17.51953125 C-5.83832031 16.80023438 -5.98914063 16.0809375 -6.14453125 15.33984375 C-6.79808838 13.02406576 -6.79808838 13.02406576 -9.875 11.39453125 C-12.51471948 11.03970824 -12.51471948 11.03970824 -15.375 11.08203125 C-16.81359375 11.05689453 -16.81359375 11.05689453 -18.28125 11.03125 C-21.26103673 11.44859965 -22.08531496 12.03696538 -23.875 14.39453125 C-24.205 15.05453125 -24.535 15.71453125 -24.875 16.39453125 C-29.7083472 16.47786482 -34.11192563 16.34714612 -38.875 15.39453125 C-38.28019826 10.27923627 -37.31011024 6.52756452 -33.33203125 3.04296875 C-23.78785018 -4.16257193 -10.85351305 -5.0518819 0 0 Z " fill="#07683B" transform="translate(615.875,266.60546875)"/>
<path d="M0 0 C0.75539063 -0.01546875 1.51078125 -0.0309375 2.2890625 -0.046875 C8.87088758 -0.00163909 13.98696771 1.95230088 19.0234375 6.2109375 C19.46945312 6.76007813 19.91546875 7.30921875 20.375 7.875 C20.83648438 8.41898438 21.29796875 8.96296875 21.7734375 9.5234375 C25.30048673 15.20715378 25.27041245 20.81491492 25.1953125 27.2734375 C25.1924826 28.1971817 25.18965271 29.1209259 25.18673706 30.07266235 C25.17559179 33.00690976 25.15049765 35.9408457 25.125 38.875 C25.11496289 40.87108932 25.10583832 42.86718346 25.09765625 44.86328125 C25.07567097 49.74230649 25.04118017 54.62110054 25 59.5 C20.38 59.5 15.76 59.5 11 59.5 C10.67 57.85 10.34 56.2 10 54.5 C9.0925 55.304375 8.185 56.10875 7.25 56.9375 C2.4873792 61.15891389 -2.82475829 60.84456721 -8.95703125 60.77734375 C-14.82851821 60.24220181 -18.99788221 57.89384115 -22.9375 53.5625 C-26.2383931 48.66117389 -26.41035576 44.34756952 -26 38.5 C-23.93454457 32.7626238 -20.45386819 29.41881566 -15.2421875 26.5234375 C-7.37334877 23.22161105 1.64538051 24.25666157 10 24.5 C9.77139942 23.03815942 9.51629608 21.58044581 9.25 20.125 C9.11078125 19.31289062 8.9715625 18.50078125 8.828125 17.6640625 C8.18480982 15.38026668 8.18480982 15.38026668 6.203125 14.234375 C2.46316224 12.98772075 -1.11344675 12.89987045 -5 13.5 C-7.50160818 15.37620613 -8.61945652 16.73891303 -10 19.5 C-16.93 19.005 -16.93 19.005 -24 18.5 C-23.77959584 13.10009818 -22.52306135 10.28799633 -19.05859375 6.17578125 C-13.13457392 1.3533818 -7.54004077 -0.15440357 0 0 Z " fill="#06673A" transform="translate(704,167.5)"/>
<path d="M0 0 C5.28 0 10.56 0 16 0 C19.8995976 9.8643667 23.69936797 19.74148803 27.13330078 29.77905273 C28.10139927 33.15266384 28.10139927 33.15266384 30 36 C30.21615967 35.37134033 30.43231934 34.74268066 30.6550293 34.0949707 C34.59415725 22.65632902 38.55426664 11.25326256 43 0 C48.28 0 53.56 0 59 0 C49.96464626 25.21867622 49.96464626 25.21867622 45.46484375 37.09765625 C44.37109118 39.99306028 43.3071587 42.89821533 42.25390625 45.80859375 C31.48830202 75.53733105 31.48830202 75.53733105 22.73828125 80.20703125 C19.29440154 81.20433165 16.2673146 81.19191242 12.6875 81.125 C11.43324219 81.10695313 10.17898438 81.08890625 8.88671875 81.0703125 C7.93410156 81.04710937 6.98148438 81.02390625 6 81 C6 76.71 6 72.42 6 68 C7.588125 67.7525 9.17625 67.505 10.8125 67.25 C13.84093786 66.77803566 15.50297447 66.46286191 17.76171875 64.359375 C19.7900296 60.49470702 20.52397386 57.10286935 19.44970703 52.79150391 C18.57061028 50.25775984 17.58996656 47.78977451 16.5625 45.3125 C16.19995117 44.40129395 15.83740234 43.49008789 15.46386719 42.55126953 C14.32398038 39.69466795 13.16268665 36.84738592 12 34 C11.27302993 32.18948762 10.54772582 30.37830528 9.82421875 28.56640625 C8.79747435 25.99584161 7.77028164 23.42549116 6.73852539 20.85693359 C0 4.07234061 0 4.07234061 0 0 Z " fill="#05673A" transform="translate(618,169)"/>
<path d="M0 0 C6.1158927 4.16176464 8.97452413 8.93093737 10.796875 16.05859375 C12.56109707 25.47271991 10.46505445 33.65972559 5.26171875 41.5390625 C1.10281305 46.50664431 -3.73787014 49.97474118 -10.23046875 50.890625 C-17.6933518 51.14014389 -23.63067374 49.14738118 -29.3203125 44.12890625 C-35.524367 37.17284514 -37.10780343 29.75883563 -37.01953125 20.7109375 C-36.34457419 13.09892174 -33.08487529 6.88565654 -27.73828125 1.5390625 C-18.98808625 -5.0682276 -9.55609821 -5.37061721 0 0 Z " fill="#FCFDFB" transform="translate(217.73828125,155.4609375)"/>
<path d="M0 0 C0 5.61 0 11.22 0 17 C4.95 17 9.9 17 15 17 C15 21.29 15 25.58 15 30 C10.05 30 5.1 30 0 30 C0.495 45.345 0.495 45.345 1 61 C5.29 61.33 9.58 61.66 14 62 C14 66.29 14 70.58 14 75 C7.43448165 76.64137959 -0.48214727 77.24455856 -7 75 C-11.16689161 72.22207226 -13.27819884 69.74821978 -15 65 C-15.61294523 58.98552157 -15.47235315 53.03581372 -15.3125 47 C-15.28738662 45.3502942 -15.26457881 43.7005516 -15.24414062 42.05078125 C-15.18938229 38.03293684 -15.10328207 34.01687802 -15 30 C-17.97 30 -20.94 30 -24 30 C-25.35148541 25.69214025 -26 22.58042408 -26 18 C-22.7 17.34 -19.4 16.68 -16 16 C-15.67 11.71 -15.34 7.42 -15 3 C-12.87562952 2.49733206 -10.75048274 1.9979439 -8.625 1.5 C-7.44164062 1.2215625 -6.25828125 0.943125 -5.0390625 0.65625 C-2 0 -2 0 0 0 Z " fill="#06683B" transform="translate(516,248)"/>
<path d="M0 0 C2.35125 0.061875 2.35125 0.061875 4.75 0.125 C4.75 5.075 4.75 10.025 4.75 15.125 C2.955625 15.0321875 2.955625 15.0321875 1.125 14.9375 C-3.03117941 14.95221214 -5.74467812 15.76094571 -9.25 18.125 C-12.54965074 22.34152131 -12.7183886 26.32352595 -12.76171875 31.48828125 C-12.77966995 32.28026413 -12.79762115 33.07224701 -12.81611633 33.88822937 C-12.87006838 36.40459962 -12.90406563 38.92078185 -12.9375 41.4375 C-12.97068651 43.14911462 -13.00517741 44.86070448 -13.04101562 46.57226562 C-13.12823016 50.75653519 -13.18842409 54.93996114 -13.25 59.125 C-18.53 59.125 -23.81 59.125 -29.25 59.125 C-29.25 39.985 -29.25 20.845 -29.25 1.125 C-24.63 1.125 -20.01 1.125 -15.25 1.125 C-14.59 3.105 -13.93 5.085 -13.25 7.125 C-12.6725 6.34125 -12.095 5.5575 -11.5 4.75 C-7.98139537 0.64496126 -5.34093367 -0.14055089 0 0 Z " fill="#056539" transform="translate(480.25,167.875)"/>
<path d="M0 0 C0 4.95 0 9.9 0 15 C-1.546875 15.12375 -3.09375 15.2475 -4.6875 15.375 C-10.08925914 15.87104527 -10.08925914 15.87104527 -15 18 C-17.30106958 22.30313301 -17.34172766 26.59375406 -17.4140625 31.36328125 C-17.43342865 32.15526413 -17.4527948 32.94724701 -17.4727478 33.76322937 C-17.53227232 36.27954519 -17.57881958 38.79590744 -17.625 41.3125 C-17.66320481 43.0241079 -17.70225799 44.73569709 -17.7421875 46.44726562 C-17.83954035 50.6314101 -17.91932217 54.81536815 -18 59 C-23.28 59 -28.56 59 -34 59 C-34 39.86 -34 20.72 -34 1 C-29.38 1 -24.76 1 -20 1 C-19.67 3.64 -19.34 6.28 -19 9 C-18.63648438 8.51789063 -18.27296875 8.03578125 -17.8984375 7.5390625 C-12.45667938 0.70198179 -8.94982324 0 0 0 Z " fill="#07683C" transform="translate(573,264)"/>
<path d="M0 0 C4.95 0 9.9 0 15 0 C15 19.14 15 38.28 15 58 C10.05 58 5.1 58 0 58 C0 38.86 0 19.72 0 0 Z " fill="#036438" transform="translate(469,265)"/>
<path d="M0 0 C5.34740414 1.95385921 8.45618143 4.91236287 11 10 C12.04622952 23.37801685 12.04622952 23.37801685 9.25 27.6875 C4.2687308 32.80713779 4.2687308 32.80713779 0.37890625 33.3984375 C-9.58083413 33.31555478 -9.58083413 33.31555478 -13 30 C-17.33440099 24.14425296 -17.88237968 18.10261173 -17 11 C-14.28386609 2.85159826 -8.47218737 -1.5419381 0 0 Z " fill="#F9FAF9" transform="translate(520,181)"/>
<path d="M0 0 C4.01186453 2.20690468 6.43347648 4.84232151 8.4375 8.9375 C9.76435593 16.16149342 8.91682224 21.76209791 5 28 C2.01323686 30.85774529 -0.21413007 31.47554731 -4.3125 31.5625 C-9.47697992 31.4380547 -12.09055032 30.15867732 -15.7578125 26.60546875 C-19.45335374 21.82915601 -18.50347657 14.68508957 -18 9 C-14.41458008 1.29798683 -8.26875511 -1.73855877 0 0 Z " fill="#F9FBF9" transform="translate(587,181)"/>
<path d="M0 0 C2.87099419 2.87099419 3.67190674 6.41622334 4.9375 10.1875 C6.38773136 14.46401346 7.82163123 18.68683702 9.69140625 22.80078125 C11 26 11 26 11 30 C3.74 30 -3.52 30 -11 30 C-7.625 19.875 -7.625 19.875 -5.95703125 15.52734375 C-5.60576172 14.60888672 -5.25449219 13.69042969 -4.89257812 12.74414062 C-4.53615234 11.81794922 -4.17972656 10.89175781 -3.8125 9.9375 C-3.44447266 8.97650391 -3.07644531 8.01550781 -2.69726562 7.02539062 C-1.79990328 4.68292528 -0.90078716 2.34114999 0 0 Z " fill="#F1F5F2" transform="translate(407,167)"/>
<path d="M0 0 C0.30962343 9.28870293 0.30962343 9.28870293 -2 12 C-7.42073866 15.14402843 -10.9171063 15.49579353 -17 14 C-19.87500051 11.98749964 -20.81253111 10.93734447 -21.5 7.5 C-20.81253111 4.06265553 -19.87500051 3.01250036 -17 1 C-11.34630101 -0.14990488 -5.75393738 -0.1198737 0 0 Z " fill="#F5F8F6" transform="translate(611,298)"/>
<path d="M0 0 C3.73152858 1.17474048 5.26415485 1.76958156 7.375 5.0625 C8.07976018 9.99582128 8.14541398 11.90687903 5.375 16.0625 C1.21937903 18.83291398 -0.69167872 18.76726018 -5.625 18.0625 C-8.125 16.625 -8.125 16.625 -9.625 14.0625 C-10.43942033 10.23329563 -10.68709824 6.72507781 -8.51953125 3.33203125 C-5.73786573 0.6696865 -3.80733387 0.06564369 0 0 Z " fill="#0A673C" transform="translate(477.625,239.9375)"/>
<path d="M0 0 C1.75570312 0.01353516 1.75570312 0.01353516 3.546875 0.02734375 C4.43890625 0.03894531 5.3309375 0.05054688 6.25 0.0625 C6.83334454 5.0209286 7.03131889 8.02778039 3.9375 12.125 C0.15964457 14.73696225 -3.80379636 14.58057694 -8.26171875 14.53125 C-11.12958284 13.99099303 -12.07894921 13.42936538 -13.75 11.0625 C-14.39615385 5.03173077 -14.39615385 5.03173077 -12.5 2.1875 C-8.59556622 -0.32249314 -4.53004376 -0.04530044 0 0 Z " fill="#F8FAF8" transform="translate(707.75,201.9375)"/>
<path d="M0 0 C0.33 0 0.66 0 1 0 C1 17.16 1 34.32 1 52 C0.67 52 0.34 52 0 52 C-0.01030746 51.43037033 -0.02061493 50.86074066 -0.03123474 50.27384949 C-0.13929277 44.35294092 -0.25389145 38.43218475 -0.37231445 32.51147461 C-0.41566552 30.30089502 -0.45734046 28.09028191 -0.49731445 25.87963867 C-0.55501266 22.70481251 -0.61870862 19.53015514 -0.68359375 16.35546875 C-0.70030624 15.36475876 -0.71701874 14.37404877 -0.73423767 13.35331726 C-0.75418289 12.43258926 -0.77412811 11.51186127 -0.79467773 10.56323242 C-0.81022202 9.7527092 -0.8257663 8.94218597 -0.84178162 8.10710144 C-0.92809721 5.80853317 -0.92809721 5.80853317 -2 3 C-1.34 2.01 -0.68 1.02 0 0 Z " fill="#DCEBE5" transform="translate(439,271)"/>
<path d="M0 0 C2.31 0 4.62 0 7 0 C7 4.95 7 9.9 7 15 C4.03 15 1.06 15 -2 15 C-1.67 14.34 -1.34 13.68 -1 13 C0.65 12.67 2.3 12.34 4 12 C4.66 8.7 5.32 5.4 6 2 C3.36 2 0.72 2 -2 2 C-1.34 1.34 -0.68 0.68 0 0 Z " fill="#146238" transform="translate(566,264)"/>
<path d="M0 0 C0 3.63053243 -1.2278255 4.95750337 -3.5546875 7.63671875 C-5.49136818 9.46347972 -7.46012234 10.27432067 -10 11 C-6.79239749 7.19364503 -3.59253891 3.45436433 0 0 Z " fill="#C8372A" transform="translate(253,260)"/>
<path d="M0 0 C2.3125 0.1875 2.3125 0.1875 4 1 C3.01 2.485 3.01 2.485 2 4 C1.01 4 0.02 4 -1 4 C-1 4.66 -1 5.32 -1 6 C-2.32 5.67 -3.64 5.34 -5 5 C-2.75 2.4375 -2.75 2.4375 0 0 Z " fill="#D13327" transform="translate(275,237)"/>
<path d="M0 0 C0 3.96148814 -1.46894972 5.03505539 -4 8 C-5.00573778 9.32901064 -6.00795408 10.66073801 -7 12 C-7.66 11.67 -8.32 11.34 -9 11 C-7.87672229 9.54033966 -6.75131706 8.08231636 -5.625 6.625 C-4.99851562 5.81289062 -4.37203125 5.00078125 -3.7265625 4.1640625 C-2 2 -2 2 0 0 Z " fill="#175C35" transform="translate(122,133)"/>
</svg>
